<svg xmlns="http://www.w3.org/2000/svg" width="24" height="24" viewBox="0 0 24 24"><defs><style>.a{fill:#fff;}</style></defs><path class="a" d="M23.3,22.594h-.483V7.243a.7.7,0,0,0-.7-.7H12.7V.7A.7.7,0,0,0,12,0H1.889a.7.7,0,0,0-.7.7V22.594H.7A.7.7,0,0,0,.7,24H23.3a.7.7,0,1,0,0-1.406ZM2.592,1.406h8.7V22.594H9.483V17.1a.7.7,0,0,0-.7-.7H5.11a.7.7,0,0,0-.7.7v5.5H2.592ZM5.813,22.594V17.8H8.076v4.793Zm10.111,0V17.8h2.264v4.793Zm3.67,0V17.1a.7.7,0,0,0-.7-.7h-3.67a.7.7,0,0,0-.7.7v5.5H12.7V7.946h8.7V22.594Z"/><path class="a" d="M94.71,71.161h3.67a.7.7,0,0,0,.7-.7V67.012a.7.7,0,0,0-.7-.7H94.71a.7.7,0,0,0-.7.7v3.446A.7.7,0,0,0,94.71,71.161Zm.7-3.446h2.264v2.039H95.413Z" transform="translate(-89.6 -63.201)"/><path class="a" d="M94.71,210.806h3.67a.7.7,0,0,0,.7-.7v-3.446a.7.7,0,0,0-.7-.7H94.71a.7.7,0,0,0-.7.7V210.1A.7.7,0,0,0,94.71,210.806Zm.7-3.446h2.264V209.4H95.413Z" transform="translate(-89.6 -196.3)"/><path class="a" d="M314.077,205.954h-3.67a.7.7,0,0,0-.7.7V210.1a.7.7,0,0,0,.7.7h3.67a.7.7,0,0,0,.7-.7v-3.446A.7.7,0,0,0,314.077,205.954Zm-.7,3.446H311.11V207.36h2.264Z" transform="translate(-295.187 -196.3)"/></svg>