<svg xmlns="http://www.w3.org/2000/svg" width="51.527" height="51.527" viewBox="0 0 51.527 51.527"><defs><style>.a{fill:#d9e0e4;}</style></defs><path class="a" d="M25.764.563A25.764,25.764,0,1,0,51.527,26.326,25.759,25.759,0,0,0,25.764.563Zm0,9.973a9.142,9.142,0,1,1-9.142,9.142A9.142,9.142,0,0,1,25.764,10.536Zm0,35.737a19.907,19.907,0,0,1-15.219-7.085,11.583,11.583,0,0,1,10.233-6.212,2.542,2.542,0,0,1,.738.114,13.755,13.755,0,0,0,4.249.717,13.7,13.7,0,0,0,4.249-.717,2.542,2.542,0,0,1,.738-.114,11.583,11.583,0,0,1,10.233,6.212A19.907,19.907,0,0,1,25.764,46.272Z" transform="translate(0 -0.563)"/></svg>